<?xml version="1.0" standalone="no"?>
<!DOCTYPE svg PUBLIC "-//W3C//DTD SVG 20010904//EN"
 "http://www.w3.org/TR/2001/REC-SVG-20010904/DTD/svg10.dtd">
<svg version="1.0" xmlns="http://www.w3.org/2000/svg"
 width="500.000000pt" height="500.000000pt" viewBox="0 0 500.000000 500.000000"
 preserveAspectRatio="xMidYMid meet">
<metadata>
Created by potrace 1.14, written by Peter Selinger 2001-2017
</metadata>
<g transform="translate(0.000000,500.000000) scale(0.100000,-0.100000)"
fill="#000000" stroke="none">
<path d="M2319 4536 c-2 -2 -33 -6 -69 -10 -97 -9 -124 -14 -252 -46 -381 -96
-679 -305 -827 -581 -50 -95 -98 -242 -110 -344 -10 -77 -7 -311 4 -385 11
-73 38 -197 57 -260 10 -36 28 -95 39 -132 23 -77 44 -106 77 -113 42 -8 68
20 96 105 15 44 44 121 64 172 l37 93 75 -4 c109 -6 197 -6 263 1 57 6 59 6
52 -15 -4 -12 -9 -31 -12 -43 -16 -67 180 -144 382 -150 176 -5 311 42 475
163 78 58 263 239 340 332 68 83 170 183 223 220 127 87 274 131 451 134 116
2 119 3 138 28 18 24 19 30 7 65 -31 87 -227 249 -417 343 -158 79 -442 184
-624 231 -27 7 -48 15 -48 17 0 3 16 27 35 53 61 84 47 103 -85 119 -73 8
-363 14 -371 7z m-806 -647 c-43 -101 -70 -195 -79 -280 -3 -35 -19 -98 -34
-140 -29 -80 -64 -221 -75 -299 -8 -61 -16 -84 -78 -243 -55 -139 -63 -157
-64 -134 0 6 -4 48 -8 92 -20 208 0 434 51 595 26 85 92 232 107 238 4 2 7 8
7 13 0 25 180 239 201 239 4 0 -8 -37 -28 -81z"/>
<path d="M3560 3259 c0 -4 -6 -6 -12 -4 -20 7 -56 -27 -62 -56 -3 -21 10 -46
60 -115 35 -49 68 -94 74 -101 5 -7 10 -15 10 -19 0 -3 9 -17 20 -31 11 -14
20 -32 20 -39 0 -7 -23 -39 -51 -71 -28 -32 -78 -100 -112 -151 l-60 -92 -26
31 c-35 42 -65 40 -137 -7 -51 -33 -188 -161 -219 -205 -58 -79 -110 -216
-122 -319 -21 -176 -2 -336 79 -655 54 -212 58 -354 13 -505 -21 -69 -86 -192
-132 -248 -44 -53 -51 -90 -23 -120 11 -12 31 -23 43 -23 76 -5 131 2 257 35
158 41 524 265 755 462 l51 43 23 -62 c29 -74 38 -87 62 -87 49 0 251 262 357
463 83 156 163 390 187 542 13 88 14 292 1 375 -69 442 -396 759 -968 940 -49
16 -88 24 -88 19z m131 -79 c258 -152 443 -332 557 -540 42 -77 95 -223 106
-295 7 -40 7 -40 -41 32 -68 102 -137 178 -206 229 -32 24 -75 65 -95 91 -20
27 -78 95 -129 152 -51 58 -93 108 -93 113 0 5 -16 32 -35 61 -20 28 -41 61
-48 71 -7 10 -29 41 -50 67 -20 27 -33 49 -28 49 6 0 33 -14 62 -30z"/>
<path d="M2803 2927 c-12 -39 -33 -88 -47 -107 -77 -105 -81 -182 -14 -242 36
-32 40 -30 45 14 4 39 31 69 76 84 l32 11 -1 77 c-1 42 1 75 3 72 6 -6 15 -64
17 -111 1 -38 2 -40 36 -41 19 -1 41 1 48 3 25 10 8 82 -39 163 -25 42 -118
150 -130 150 -3 0 -15 -33 -26 -73z"/>
<path d="M495 2864 c-29 -31 -71 -144 -90 -244 -14 -76 -15 -416 0 -505 13
-79 57 -309 62 -323 5 -11 -5 -13 -59 -7 -90 10 -97 -1 -68 -97 75 -253 262
-560 459 -755 328 -326 701 -442 1086 -339 217 57 449 199 679 413 49 46 59
61 58 86 0 20 -9 39 -24 51 -23 18 -42 18 -143 1 -66 -11 -159 -22 -182 -21
-21 1 -29 13 -62 101 -21 55 -54 132 -74 171 l-35 70 28 11 c41 15 50 58 33
160 -35 219 -138 387 -305 500 -60 41 -158 94 -158 87 0 -3 -10 0 -23 9 -43
28 -332 113 -477 140 -262 49 -474 213 -579 449 -32 72 -82 89 -126 42z m2005
-1857 c-9 -8 -124 -70 -175 -95 -91 -45 -265 -102 -358 -118 -104 -18 -252
-22 -342 -10 -53 8 -57 10 -32 17 15 4 42 9 60 12 51 7 153 53 218 97 82 56
99 61 214 65 136 6 262 15 310 24 50 9 111 13 105 8z"/>
<path d="M1820 2714 c0 -4 16 -31 36 -61 19 -29 38 -66 40 -81 7 -37 32 -87
53 -106 61 -55 199 11 197 94 -2 60 -38 109 -101 136 -39 17 -225 31 -225 18z
m176 -66 c47 -36 84 -77 94 -104 17 -44 10 -51 -9 -9 -18 40 -77 102 -116 123
-11 6 -15 12 -9 12 6 0 24 -10 40 -22z"/>
<path d="M3070 2684 c-25 -8 -76 -15 -114 -16 -80 -1 -120 -19 -137 -61 -13
-31 -15 -80 -3 -98 7 -11 84 -8 129 5 11 4 7 0 -10 -8 -16 -8 -49 -15 -72 -16
-48 0 -50 -17 -6 -45 56 -37 142 -14 191 51 28 36 82 164 82 195 0 11 -4 11
-60 -7z m-41 -120 c-30 -32 -59 -49 -59 -34 0 5 6 10 13 10 8 0 24 11 37 25
13 14 26 25 28 25 3 0 -5 -12 -19 -26z"/>
<path d="M2417 2619 c-93 -15 -200 -96 -244 -187 -23 -49 -27 -70 -28 -147 0
-84 2 -94 33 -147 44 -76 95 -126 162 -157 74 -35 203 -37 265 -4 142 75 208
175 206 315 0 107 -56 211 -146 274 -67 47 -160 67 -248 53z m173 -256 c0 -7
-50 -96 -59 -103 -3 -3 -15 -21 -25 -40 -11 -19 -32 -54 -46 -78 l-27 -44 -12
74 -12 73 -54 30 c-56 30 -65 46 -29 51 83 12 161 24 209 34 55 11 55 11 55 3z"/>
<path d="M1825 2586 c-61 -26 -174 -165 -199 -243 -6 -18 -3 -19 36 -13 59 9
127 3 178 -15 88 -31 172 -11 202 48 30 59 31 69 5 61 -54 -17 -118 7 -133 50
-8 23 -57 17 -125 -17 -27 -13 -45 -19 -42 -14 8 13 104 57 126 57 20 0 23 36
5 75 -13 29 -13 29 -53 11z"/>
<path d="M2423 1877 c-35 -16 -73 -79 -77 -128 -4 -49 21 -130 60 -197 l26
-44 19 31 c10 17 19 36 19 41 0 6 27 37 60 71 33 33 60 64 61 67 0 4 3 18 5
32 6 35 -14 77 -48 102 l-30 21 -29 -30 c-16 -16 -41 -56 -55 -88 -14 -33 -22
-46 -19 -30 11 49 37 98 63 121 14 11 22 25 19 31 -8 13 -45 13 -74 0z"/>
<path d="M2587 1864 c-3 -4 4 -19 16 -35 24 -34 26 -88 4 -123 -14 -21 -13
-25 16 -57 18 -19 45 -45 61 -57 16 -12 24 -22 19 -22 -11 0 -69 46 -97 78
-26 29 -30 28 -67 -10 l-31 -33 33 -27 c52 -44 131 -65 267 -72 55 -3 63 4 38
39 -37 53 -57 101 -66 160 -12 76 -41 130 -81 150 -28 15 -100 20 -112 9z"/>
</g>
</svg>
